HIERARCHY
ROOT joint_Root
{
	OFFSET 0.0 0.0 0.0
	CHANNELS 6 Xposition Yposition Zposition Zrotation Xrotation Yrotation 
	JOINT Hips
	{
		OFFSET 4.5925 91.4895 -427.239
		CHANNELS 6 Xposition Yposition Zposition Zrotation Xrotation Yrotation 
		JOINT Spine
		{
			OFFSET 15.7357 0.0 0.0
			CHANNELS 6 Xposition Yposition Zposition Zrotation Xrotation Yrotation 
			JOINT Chest
			{
				OFFSET 8.98455 -0.406207 0.0
				CHANNELS 6 Xposition Yposition Zposition Zrotation Xrotation Yrotation 
				JOINT Neck
				{
					OFFSET 16.3773 0.0 0.0
					CHANNELS 6 Xposition Yposition Zposition Zrotation Xrotation Yrotation 
					JOINT Head
					{
						OFFSET 6.45672 0.0 0.0
						CHANNELS 6 Xposition Yposition Zposition Zrotation Xrotation Yrotation 
						End Site
						{
							OFFSET 0.0 0.0 0.0
						}
					}
				}
				JOINT Shoulder_L
				{
					OFFSET 12.9942 -0.242716 4.98039
					CHANNELS 6 Xposition Yposition Zposition Zrotation Xrotation Yrotation 
					JOINT UpperArm_L
					{
						OFFSET 5.34809 0.0 0.0
						CHANNELS 6 Xposition Yposition Zposition Zrotation Xrotation Yrotation 
						JOINT LowerArm_L
						{
							OFFSET 24.3286 1.87007e-05 0.0
							CHANNELS 6 Xposition Yposition Zposition Zrotation Xrotation Yrotation 
							JOINT Hand_L
							{
								OFFSET 22.2916 0.0 0.0
								CHANNELS 6 Xposition Yposition Zposition Zrotation Xrotation Yrotation 
								End Site
								{
									OFFSET 0.0 0.0 0.0
								}
							}
						}
					}
				}
				JOINT Shoulder_R
				{
					OFFSET 12.9945 -0.242716 -4.98039
					CHANNELS 6 Xposition Yposition Zposition Zrotation Xrotation Yrotation 
					JOINT UpperArm_R
					{
						OFFSET -5.34813 0.0 0.0
						CHANNELS 6 Xposition Yposition Zposition Zrotation Xrotation Yrotation 
						JOINT LowerArm_R
						{
							OFFSET -24.3289 0.000322201 0.0
							CHANNELS 6 Xposition Yposition Zposition Zrotation Xrotation Yrotation 
							JOINT Hand_R
							{
								OFFSET -22.2915 -0.000108084 0.0
								CHANNELS 6 Xposition Yposition Zposition Zrotation Xrotation Yrotation 
								End Site
								{
									OFFSET 0.0 0.0 0.0
								}
							}
						}
					}
				}
			}
		}
		JOINT UpperLeg_L
		{
			OFFSET -2.19248 -6.46944 0.0
			CHANNELS 6 Xposition Yposition Zposition Zrotation Xrotation Yrotation 
			JOINT LowerLeg_L
			{
				OFFSET 39.0811 0.0 -1.23785e-05
				CHANNELS 6 Xposition Yposition Zposition Zrotation Xrotation Yrotation 
				JOINT Foot_L
				{
					OFFSET 40.9854 0.0 -1.26872e-05
					CHANNELS 6 Xposition Yposition Zposition Zrotation Xrotation Yrotation 
					JOINT Toes_L
					{
						OFFSET 11.7543 0.0 0.0
						CHANNELS 6 Xposition Yposition Zposition Zrotation Xrotation Yrotation 
						End Site
						{
							OFFSET 0.0 0.0 0.0
						}
					}
				}
			}
		}
		JOINT UpperLeg_R
		{
			OFFSET -2.19251 6.46944 0.0
			CHANNELS 6 Xposition Yposition Zposition Zrotation Xrotation Yrotation 
			JOINT LowerLeg_R
			{
				OFFSET -39.0811 -0.00228153 -0.0401928
				CHANNELS 6 Xposition Yposition Zposition Zrotation Xrotation Yrotation 
				JOINT Foot_R
				{
					OFFSET -40.9854 0.0 0.0
					CHANNELS 6 Xposition Yposition Zposition Zrotation Xrotation Yrotation 
					JOINT Toes_R
					{
						OFFSET -11.7543 0.0 0.0
						CHANNELS 6 Xposition Yposition Zposition Zrotation Xrotation Yrotation 
						End Site
						{
							OFFSET 0.0 0.0 0.0
						}
					}
				}
			}
		}
	}
}
MOTION
Frames:	4
Frame Time:	0.0333333
0.000000 0.000000 0.000000 0.000000 0.000000 -0.000000 -2.663190 91.603000 -0.256948 88.880400 10.337700 3.309550 15.735700 0.000005 -0.000001 96.392800 85.884600 -100.205000 8.984550 -0.406207 -0.000000 0.463684 1.158750 -7.624050 16.377300 -0.000001 -0.000001 5.376210 -7.537200 6.769120 6.456720 -0.000001 -0.000000 -6.301940 -5.696500 -0.314749 12.994200 -0.242716 4.980390 -91.670800 4.302280 -68.752500 5.348090 -0.000007 -0.000001 -63.047500 21.821200 -7.793820 24.328600 0.000019 0.000005 6.746790 18.580000 -20.368900 22.291600 -0.000001 0.000005 12.600100 5.154830 3.827580 12.994500 -0.242716 -4.980390 93.962500 -9.733360 -67.719800 -5.348130 -0.000001 -0.000004 -49.381800 -65.977200 -92.460000 -24.328900 0.000322 -0.000009 -3.807630 -4.115100 -42.830100 -22.291500 -0.000108 -0.000004 13.351200 5.428080 -3.872760 -2.192480 -6.469440 -0.000000 -173.886000 -9.062360 -7.829110 39.081100 -0.000007 -0.000012 -0.103608 0.202560 27.089400 40.985400 -0.000006 -0.000013 0.735264 15.555200 -66.609400 11.754300 -0.000000 0.000003 -0.000061 -0.000677 -16.603800 -2.192510 6.469440 -0.000001 178.452000 27.961800 177.700000 -39.081100 -0.002282 -0.040193 0.018416 -0.032448 24.961600 -40.985400 0.000008 0.000006 7.288510 9.660410 -70.164100 -11.754300 -0.000006 -0.000006 -0.004022 -0.051673 -18.675000
0.000000 0.000000 0.000000 0.000000 0.000000 -0.000000 -2.415910 91.644900 -0.347827 88.899000 9.187260 3.215580 15.735700 0.000005 -0.000001 96.216800 85.906700 -99.895000 8.984550 -0.406207 -0.000000 0.419127 1.121760 -7.355410 16.377300 -0.000001 -0.000001 5.064470 -7.197250 6.726050 6.456720 -0.000001 -0.000000 -6.264780 -5.279040 0.074383 12.994200 -0.242716 4.980390 -91.758900 4.533760 -68.769900 5.348090 -0.000007 -0.000001 -62.980700 22.611700 -7.934550 24.328600 0.000019 0.000005 6.654460 18.398800 -20.285900 22.291600 -0.000001 0.000005 12.626400 5.157180 3.771010 12.994500 -0.242716 -4.980390 93.470400 -8.859910 -68.508800 -5.348130 -0.000001 -0.000004 -46.161300 -65.184200 -87.445500 -24.328900 0.000322 -0.000009 -5.383020 -4.961690 -47.440600 -22.291500 -0.000108 -0.000004 14.443700 5.437430 -4.193740 -2.192480 -6.469440 -0.000000 -174.107000 -9.327550 -7.656900 39.081100 -0.000007 -0.000012 -0.103946 0.204867 26.902600 40.985400 -0.000006 -0.000013 0.703401 14.662300 -66.599400 11.754300 -0.000000 0.000003 -0.000060 -0.000666 -16.603300 -2.192510 6.469440 -0.000001 178.299000 27.460800 177.554000 -39.081100 -0.002282 -0.040193 0.017201 -0.030021 24.825900 -40.985400 0.000008 0.000006 7.244910 10.376600 -70.018400 -11.754300 -0.000006 -0.000006 -0.004169 -0.053185 -18.736600
0.000000 0.000000 0.000000 0.000000 0.000000 -0.000000 -2.159360 91.680700 -0.438425 88.902800 7.854150 3.121230 15.735700 0.000005 -0.000001 96.285600 85.919500 -99.828200 8.984550 -0.406207 -0.000000 0.390545 1.120960 -7.084310 16.377300 -0.000001 -0.000001 4.652260 -6.786380 6.482920 6.456720 -0.000001 -0.000000 -6.251680 -5.032130 0.746237 12.994200 -0.242716 4.980390 -91.854000 4.753600 -68.664400 5.348090 -0.000007 -0.000001 -62.834000 23.604100 -8.378940 24.328600 0.000019 0.000005 6.526330 18.546700 -19.781700 22.291600 -0.000001 0.000005 12.440700 5.155940 3.800860 12.994500 -0.242716 -4.980390 92.771300 -7.396070 -69.392700 -5.348130 -0.000001 -0.000004 -42.346200 -63.751300 -81.417800 -24.328900 0.000322 -0.000009 -7.275170 -5.432980 -53.428800 -22.291500 -0.000108 -0.000004 15.966500 5.452740 -4.735940 -2.192480 -6.469440 -0.000000 -174.288000 -9.897150 -7.473100 39.081100 -0.000007 -0.000012 -0.104627 0.207595 26.748000 40.985400 -0.000006 -0.000013 0.711134 13.900600 -66.624700 11.754300 -0.000000 0.000003 -0.000064 -0.000699 -16.604600 -2.192510 6.469440 -0.000001 178.150000 26.921200 177.391000 -39.081100 -0.002282 -0.040193 0.015859 -0.027295 24.685600 -40.985400 0.000008 0.000006 7.233630 11.235500 -69.909100 -11.754300 -0.000006 -0.000006 -0.004261 -0.054129 -18.775100
0.000000 0.000000 0.000000 0.000000 0.000000 -0.000000 -1.884800 91.707800 -0.527791 88.924100 6.409480 3.065360 15.735700 0.000005 -0.000001 96.334200 85.897200 -99.744000 8.984550 -0.406207 -0.000000 0.432189 1.122990 -6.819230 16.377300 -0.000001 -0.000001 4.115560 -6.378970 6.081560 6.456720 -0.000001 -0.000000 -6.344070 -4.900200 1.518250 12.994200 -0.242716 4.980390 -91.932700 4.912560 -68.492900 5.348090 -0.000007 -0.000001 -62.775300 24.444600 -8.924480 24.328600 0.000019 0.000005 6.379730 18.689600 -19.235100 22.291600 -0.000001 0.000005 12.276900 5.149660 3.951260 12.994500 -0.242716 -4.980390 92.056700 -5.721880 -70.192200 -5.348130 -0.000001 -0.000004 -39.503500 -61.337900 -75.063700 -24.328900 0.000322 -0.000009 -8.597710 -4.756070 -61.255600 -22.291500 -0.000108 -0.000004 17.756100 5.460120 -5.005160 -2.192480 -6.469440 -0.000000 -174.495000 -10.485600 -7.259730 39.081100 -0.000007 -0.000012 -0.103851 0.207123 26.629300 40.985400 -0.000006 -0.000013 0.720801 13.074200 -66.675600 11.754300 -0.000000 0.000003 -0.000060 -0.000665 -16.603300 -2.192510 6.469440 -0.000001 177.905000 26.421400 177.221000 -39.081100 -0.002282 -0.040193 0.004120 -0.001760 24.630400 -40.985400 0.000008 0.000006 6.992520 12.287600 -69.731200 -11.754300 -0.000006 -0.000006 -0.004145 -0.052942 -18.726700
